<mxfile host="Electron" modified="2023-10-05T14:42:52.496Z" agent="Mozilla/5.0 (Macintosh; Intel Mac OS X 10_15_7) AppleWebKit/537.36 (KHTML, like Gecko) draw.io/22.0.2 Chrome/114.0.5735.289 Electron/25.8.4 Safari/537.36" etag="uSYldKQUl_OXUTg6IV1g" version="22.0.2" type="device">
  <diagram id="C5RBs43oDa-KdzZeNtuy" name="Page-1">
    <mxGraphModel dx="954" dy="727" grid="0" gridSize="10" guides="1" tooltips="1" connect="1" arrows="1" fold="1" page="1" pageScale="1" pageWidth="1169" pageHeight="827" background="none" math="0" shadow="0">
      <root>
        <mxCell id="WIyWlLk6GJQsqaUBKTNV-0" />
        <mxCell id="WIyWlLk6GJQsqaUBKTNV-1" parent="WIyWlLk6GJQsqaUBKTNV-0" />
        <mxCell id="NndLvORObzjh5Yxis3ud-40" value="" style="rounded=0;whiteSpace=wrap;html=1;sketch=1;hachureGap=4;jiggle=2;curveFitting=1;fontFamily=Architects Daughter;fontSource=https%3A%2F%2Ffonts.googleapis.com%2Fcss%3Ffamily%3DArchitects%2BDaughter;fontSize=20;" parent="WIyWlLk6GJQsqaUBKTNV-1" vertex="1">
          <mxGeometry x="3" y="3" width="1026" height="341" as="geometry" />
        </mxCell>
        <mxCell id="NndLvORObzjh5Yxis3ud-12" value="" style="rounded=1;whiteSpace=wrap;html=1;sketch=1;hachureGap=4;jiggle=2;curveFitting=1;fontFamily=Architects Daughter;fontSource=https%3A%2F%2Ffonts.googleapis.com%2Fcss%3Ffamily%3DArchitects%2BDaughter;fontSize=20;fillColor=none;fontColor=#ffffff;strokeColor=#006600;" parent="WIyWlLk6GJQsqaUBKTNV-1" vertex="1">
          <mxGeometry x="420" y="99" width="144" height="213" as="geometry" />
        </mxCell>
        <mxCell id="NndLvORObzjh5Yxis3ud-35" value="Handler" style="rounded=1;whiteSpace=wrap;html=1;sketch=1;hachureGap=4;jiggle=2;curveFitting=1;fontFamily=Architects Daughter;fontSource=https%3A%2F%2Ffonts.googleapis.com%2Fcss%3Ffamily%3DArchitects%2BDaughter;fontSize=20;fillColor=none;fontColor=#FFFFFF;strokeColor=#CC0066;" parent="WIyWlLk6GJQsqaUBKTNV-1" vertex="1">
          <mxGeometry x="856.5" y="172" width="120" height="51" as="geometry" />
        </mxCell>
        <mxCell id="NndLvORObzjh5Yxis3ud-14" value="&lt;font color=&quot;#ffffff&quot;&gt;runBefore()&lt;/font&gt;" style="rounded=0;whiteSpace=wrap;html=1;sketch=1;hachureGap=4;jiggle=2;curveFitting=1;fontFamily=Architects Daughter;fontSource=https%3A%2F%2Ffonts.googleapis.com%2Fcss%3Ffamily%3DArchitects%2BDaughter;fontSize=20;fillColor=none;fontColor=#000000;strokeColor=#66CC00;" parent="WIyWlLk6GJQsqaUBKTNV-1" vertex="1">
          <mxGeometry x="434.5" y="124" width="120" height="60" as="geometry" />
        </mxCell>
        <mxCell id="NndLvORObzjh5Yxis3ud-15" value="runAfter()" style="rounded=0;whiteSpace=wrap;html=1;sketch=1;hachureGap=4;jiggle=2;curveFitting=1;fontFamily=Architects Daughter;fontSource=https%3A%2F%2Ffonts.googleapis.com%2Fcss%3Ffamily%3DArchitects%2BDaughter;fontSize=20;fillColor=none;fontColor=#FFFFFF;strokeColor=#66CC00;" parent="WIyWlLk6GJQsqaUBKTNV-1" vertex="1">
          <mxGeometry x="434.5" y="228" width="120" height="60" as="geometry" />
        </mxCell>
        <mxCell id="NndLvORObzjh5Yxis3ud-13" value="M2" style="text;html=1;strokeColor=none;fillColor=none;align=center;verticalAlign=middle;whiteSpace=wrap;rounded=0;fontSize=20;fontFamily=Architects Daughter;" parent="WIyWlLk6GJQsqaUBKTNV-1" vertex="1">
          <mxGeometry x="432" y="65" width="120" height="30" as="geometry" />
        </mxCell>
        <mxCell id="NndLvORObzjh5Yxis3ud-41" value="MIDDLEWARE SCENARIO" style="text;html=1;strokeColor=none;fillColor=none;align=center;verticalAlign=middle;whiteSpace=wrap;rounded=0;fontSize=20;fontFamily=Architects Daughter;" parent="WIyWlLk6GJQsqaUBKTNV-1" vertex="1">
          <mxGeometry x="16" y="18" width="254" height="30" as="geometry" />
        </mxCell>
        <mxCell id="--shUhOUACFNP3oiHyCO-0" value="" style="rounded=1;whiteSpace=wrap;html=1;sketch=1;hachureGap=4;jiggle=2;curveFitting=1;fontFamily=Architects Daughter;fontSource=https%3A%2F%2Ffonts.googleapis.com%2Fcss%3Ffamily%3DArchitects%2BDaughter;fontSize=20;fillColor=none;fontColor=#ffffff;strokeColor=#006600;" parent="WIyWlLk6GJQsqaUBKTNV-1" vertex="1">
          <mxGeometry x="203" y="99" width="145" height="213" as="geometry" />
        </mxCell>
        <mxCell id="--shUhOUACFNP3oiHyCO-1" value="&lt;font color=&quot;#ffffff&quot;&gt;runBefore()&lt;/font&gt;" style="rounded=0;whiteSpace=wrap;html=1;sketch=1;hachureGap=4;jiggle=2;curveFitting=1;fontFamily=Architects Daughter;fontSource=https%3A%2F%2Ffonts.googleapis.com%2Fcss%3Ffamily%3DArchitects%2BDaughter;fontSize=20;fillColor=none;fontColor=#000000;strokeColor=#66CC00;" parent="WIyWlLk6GJQsqaUBKTNV-1" vertex="1">
          <mxGeometry x="217.5" y="124" width="120" height="60" as="geometry" />
        </mxCell>
        <mxCell id="--shUhOUACFNP3oiHyCO-2" value="runAfter()" style="rounded=0;whiteSpace=wrap;html=1;sketch=1;hachureGap=4;jiggle=2;curveFitting=1;fontFamily=Architects Daughter;fontSource=https%3A%2F%2Ffonts.googleapis.com%2Fcss%3Ffamily%3DArchitects%2BDaughter;fontSize=20;fillColor=none;fontColor=#FFFFFF;strokeColor=#66CC00;" parent="WIyWlLk6GJQsqaUBKTNV-1" vertex="1">
          <mxGeometry x="217.5" y="228" width="120" height="60" as="geometry" />
        </mxCell>
        <mxCell id="--shUhOUACFNP3oiHyCO-3" value="M1" style="text;html=1;strokeColor=none;fillColor=none;align=center;verticalAlign=middle;whiteSpace=wrap;rounded=0;fontSize=20;fontFamily=Architects Daughter;" parent="WIyWlLk6GJQsqaUBKTNV-1" vertex="1">
          <mxGeometry x="215.5" y="65" width="120" height="30" as="geometry" />
        </mxCell>
        <mxCell id="--shUhOUACFNP3oiHyCO-4" value="" style="rounded=1;whiteSpace=wrap;html=1;sketch=1;hachureGap=4;jiggle=2;curveFitting=1;fontFamily=Architects Daughter;fontSource=https%3A%2F%2Ffonts.googleapis.com%2Fcss%3Ffamily%3DArchitects%2BDaughter;fontSize=20;fillColor=none;fontColor=#ffffff;strokeColor=#006600;" parent="WIyWlLk6GJQsqaUBKTNV-1" vertex="1">
          <mxGeometry x="635" y="99" width="146" height="213" as="geometry" />
        </mxCell>
        <mxCell id="--shUhOUACFNP3oiHyCO-5" value="&lt;font color=&quot;#ffffff&quot;&gt;runBefore()&lt;/font&gt;" style="rounded=0;whiteSpace=wrap;html=1;sketch=1;hachureGap=4;jiggle=2;curveFitting=1;fontFamily=Architects Daughter;fontSource=https%3A%2F%2Ffonts.googleapis.com%2Fcss%3Ffamily%3DArchitects%2BDaughter;fontSize=20;fillColor=none;fontColor=#000000;strokeColor=#66CC00;" parent="WIyWlLk6GJQsqaUBKTNV-1" vertex="1">
          <mxGeometry x="648.5" y="124" width="120" height="60" as="geometry" />
        </mxCell>
        <mxCell id="--shUhOUACFNP3oiHyCO-6" value="runAfter()" style="rounded=0;whiteSpace=wrap;html=1;sketch=1;hachureGap=4;jiggle=2;curveFitting=1;fontFamily=Architects Daughter;fontSource=https%3A%2F%2Ffonts.googleapis.com%2Fcss%3Ffamily%3DArchitects%2BDaughter;fontSize=20;fillColor=none;fontColor=#FFFFFF;strokeColor=#66CC00;" parent="WIyWlLk6GJQsqaUBKTNV-1" vertex="1">
          <mxGeometry x="648.5" y="228" width="120" height="60" as="geometry" />
        </mxCell>
        <mxCell id="--shUhOUACFNP3oiHyCO-7" value="M3" style="text;html=1;strokeColor=none;fillColor=none;align=center;verticalAlign=middle;whiteSpace=wrap;rounded=0;fontSize=20;fontFamily=Architects Daughter;" parent="WIyWlLk6GJQsqaUBKTNV-1" vertex="1">
          <mxGeometry x="648" y="65" width="120" height="30" as="geometry" />
        </mxCell>
        <mxCell id="--shUhOUACFNP3oiHyCO-15" value="" style="endArrow=classic;html=1;rounded=0;sketch=1;hachureGap=4;jiggle=2;curveFitting=1;fontFamily=Architects Daughter;fontSource=https%3A%2F%2Ffonts.googleapis.com%2Fcss%3Ffamily%3DArchitects%2BDaughter;fontSize=16;entryX=0;entryY=0.5;entryDx=0;entryDy=0;exitX=1;exitY=0.5;exitDx=0;exitDy=0;" parent="WIyWlLk6GJQsqaUBKTNV-1" source="--shUhOUACFNP3oiHyCO-17" target="--shUhOUACFNP3oiHyCO-1" edge="1">
          <mxGeometry width="50" height="50" relative="1" as="geometry">
            <mxPoint x="117" y="151" as="sourcePoint" />
            <mxPoint x="230" y="154" as="targetPoint" />
          </mxGeometry>
        </mxCell>
        <mxCell id="--shUhOUACFNP3oiHyCO-16" value="&lt;font style=&quot;font-size: 14px;&quot;&gt;Event&lt;/font&gt;" style="edgeLabel;html=1;align=center;verticalAlign=middle;resizable=0;points=[];fontSize=20;fontFamily=Architects Daughter;" parent="--shUhOUACFNP3oiHyCO-15" vertex="1" connectable="0">
          <mxGeometry x="-0.5435" y="-2" relative="1" as="geometry">
            <mxPoint x="17" y="-18" as="offset" />
          </mxGeometry>
        </mxCell>
        <mxCell id="--shUhOUACFNP3oiHyCO-17" value="&lt;font style=&quot;font-size: 16px;&quot;&gt;Request&lt;/font&gt;" style="ellipse;whiteSpace=wrap;html=1;sketch=1;hachureGap=4;jiggle=2;curveFitting=1;fontFamily=Architects Daughter;fontSource=https%3A%2F%2Ffonts.googleapis.com%2Fcss%3Ffamily%3DArchitects%2BDaughter;fontSize=20;" parent="WIyWlLk6GJQsqaUBKTNV-1" vertex="1">
          <mxGeometry x="44" y="129.5" width="67" height="49" as="geometry" />
        </mxCell>
        <mxCell id="--shUhOUACFNP3oiHyCO-18" value="" style="endArrow=classic;html=1;rounded=0;sketch=1;hachureGap=4;jiggle=2;curveFitting=1;fontFamily=Architects Daughter;fontSource=https%3A%2F%2Ffonts.googleapis.com%2Fcss%3Ffamily%3DArchitects%2BDaughter;fontSize=16;entryX=0;entryY=0.5;entryDx=0;entryDy=0;exitX=1;exitY=0.5;exitDx=0;exitDy=0;" parent="WIyWlLk6GJQsqaUBKTNV-1" source="NndLvORObzjh5Yxis3ud-14" target="--shUhOUACFNP3oiHyCO-5" edge="1">
          <mxGeometry width="50" height="50" relative="1" as="geometry">
            <mxPoint x="569.9999999999998" y="153.41" as="sourcePoint" />
            <mxPoint x="661" y="153.41" as="targetPoint" />
          </mxGeometry>
        </mxCell>
        <mxCell id="--shUhOUACFNP3oiHyCO-19" value="&lt;font style=&quot;font-size: 14px;&quot;&gt;Event&lt;/font&gt;" style="edgeLabel;html=1;align=center;verticalAlign=middle;resizable=0;points=[];fontSize=20;fontFamily=Architects Daughter;" parent="--shUhOUACFNP3oiHyCO-18" vertex="1" connectable="0">
          <mxGeometry x="-0.5435" y="-2" relative="1" as="geometry">
            <mxPoint x="24" y="-18" as="offset" />
          </mxGeometry>
        </mxCell>
        <mxCell id="--shUhOUACFNP3oiHyCO-20" value="" style="endArrow=classic;html=1;rounded=0;sketch=1;hachureGap=4;jiggle=2;curveFitting=1;fontFamily=Architects Daughter;fontSource=https%3A%2F%2Ffonts.googleapis.com%2Fcss%3Ffamily%3DArchitects%2BDaughter;fontSize=16;entryX=0;entryY=0.5;entryDx=0;entryDy=0;exitX=1;exitY=0.5;exitDx=0;exitDy=0;" parent="WIyWlLk6GJQsqaUBKTNV-1" source="--shUhOUACFNP3oiHyCO-5" target="NndLvORObzjh5Yxis3ud-35" edge="1">
          <mxGeometry width="50" height="50" relative="1" as="geometry">
            <mxPoint x="768.5" y="174" as="sourcePoint" />
            <mxPoint x="856.5" y="174" as="targetPoint" />
          </mxGeometry>
        </mxCell>
        <mxCell id="--shUhOUACFNP3oiHyCO-21" value="&lt;font style=&quot;font-size: 14px;&quot;&gt;Event&lt;/font&gt;" style="edgeLabel;html=1;align=center;verticalAlign=middle;resizable=0;points=[];fontSize=20;fontFamily=Architects Daughter;" parent="--shUhOUACFNP3oiHyCO-20" vertex="1" connectable="0">
          <mxGeometry x="-0.5435" y="-2" relative="1" as="geometry">
            <mxPoint x="28" y="-12" as="offset" />
          </mxGeometry>
        </mxCell>
        <mxCell id="--shUhOUACFNP3oiHyCO-24" value="" style="endArrow=classic;html=1;rounded=0;sketch=1;hachureGap=4;jiggle=2;curveFitting=1;fontFamily=Architects Daughter;fontSource=https%3A%2F%2Ffonts.googleapis.com%2Fcss%3Ffamily%3DArchitects%2BDaughter;fontSize=16;exitX=0;exitY=0.5;exitDx=0;exitDy=0;entryX=1;entryY=0.5;entryDx=0;entryDy=0;" parent="WIyWlLk6GJQsqaUBKTNV-1" source="NndLvORObzjh5Yxis3ud-15" target="--shUhOUACFNP3oiHyCO-2" edge="1">
          <mxGeometry width="50" height="50" relative="1" as="geometry">
            <mxPoint x="440.5" y="257.77" as="sourcePoint" />
            <mxPoint x="352.5000000000001" y="257.77" as="targetPoint" />
          </mxGeometry>
        </mxCell>
        <mxCell id="--shUhOUACFNP3oiHyCO-25" value="&lt;font style=&quot;font-size: 14px;&quot;&gt;Response&lt;/font&gt;" style="edgeLabel;html=1;align=center;verticalAlign=middle;resizable=0;points=[];fontSize=20;fontFamily=Architects Daughter;" parent="--shUhOUACFNP3oiHyCO-24" vertex="1" connectable="0">
          <mxGeometry x="-0.2161" y="-1" relative="1" as="geometry">
            <mxPoint x="-11" y="-13" as="offset" />
          </mxGeometry>
        </mxCell>
        <mxCell id="--shUhOUACFNP3oiHyCO-26" value="" style="endArrow=classic;html=1;rounded=0;sketch=1;hachureGap=4;jiggle=2;curveFitting=1;fontFamily=Architects Daughter;fontSource=https%3A%2F%2Ffonts.googleapis.com%2Fcss%3Ffamily%3DArchitects%2BDaughter;fontSize=16;entryX=0;entryY=0.5;entryDx=0;entryDy=0;exitX=1;exitY=0.5;exitDx=0;exitDy=0;" parent="WIyWlLk6GJQsqaUBKTNV-1" target="NndLvORObzjh5Yxis3ud-14" edge="1">
          <mxGeometry width="50" height="50" relative="1" as="geometry">
            <mxPoint x="349.5" y="153.77" as="sourcePoint" />
            <mxPoint x="437.5" y="153.77" as="targetPoint" />
          </mxGeometry>
        </mxCell>
        <mxCell id="--shUhOUACFNP3oiHyCO-27" value="&lt;font style=&quot;font-size: 14px;&quot;&gt;Event&lt;/font&gt;" style="edgeLabel;html=1;align=center;verticalAlign=middle;resizable=0;points=[];fontSize=20;fontFamily=Architects Daughter;" parent="--shUhOUACFNP3oiHyCO-26" vertex="1" connectable="0">
          <mxGeometry x="-0.5435" y="-2" relative="1" as="geometry">
            <mxPoint x="18" y="-18" as="offset" />
          </mxGeometry>
        </mxCell>
        <mxCell id="--shUhOUACFNP3oiHyCO-28" value="" style="endArrow=classic;html=1;rounded=0;sketch=1;hachureGap=4;jiggle=2;curveFitting=1;fontFamily=Architects Daughter;fontSource=https%3A%2F%2Ffonts.googleapis.com%2Fcss%3Ffamily%3DArchitects%2BDaughter;fontSize=16;exitX=0;exitY=0.5;exitDx=0;exitDy=0;entryX=1;entryY=0.5;entryDx=0;entryDy=0;" parent="WIyWlLk6GJQsqaUBKTNV-1" source="--shUhOUACFNP3oiHyCO-6" target="NndLvORObzjh5Yxis3ud-15" edge="1">
          <mxGeometry width="50" height="50" relative="1" as="geometry">
            <mxPoint x="654" y="257.77" as="sourcePoint" />
            <mxPoint x="563" y="257.77" as="targetPoint" />
          </mxGeometry>
        </mxCell>
        <mxCell id="--shUhOUACFNP3oiHyCO-29" value="&lt;font style=&quot;font-size: 14px;&quot;&gt;Response&lt;/font&gt;" style="edgeLabel;html=1;align=center;verticalAlign=middle;resizable=0;points=[];fontSize=20;fontFamily=Architects Daughter;" parent="--shUhOUACFNP3oiHyCO-28" vertex="1" connectable="0">
          <mxGeometry x="-0.2161" y="-1" relative="1" as="geometry">
            <mxPoint x="-11" y="-13" as="offset" />
          </mxGeometry>
        </mxCell>
        <mxCell id="--shUhOUACFNP3oiHyCO-30" value="" style="endArrow=classic;html=1;rounded=0;sketch=1;hachureGap=4;jiggle=2;curveFitting=1;fontFamily=Architects Daughter;fontSource=https%3A%2F%2Ffonts.googleapis.com%2Fcss%3Ffamily%3DArchitects%2BDaughter;fontSize=16;exitX=0;exitY=0.5;exitDx=0;exitDy=0;entryX=1;entryY=0.5;entryDx=0;entryDy=0;" parent="WIyWlLk6GJQsqaUBKTNV-1" source="NndLvORObzjh5Yxis3ud-35" target="--shUhOUACFNP3oiHyCO-6" edge="1">
          <mxGeometry width="50" height="50" relative="1" as="geometry">
            <mxPoint x="659" y="268" as="sourcePoint" />
            <mxPoint x="571" y="268" as="targetPoint" />
          </mxGeometry>
        </mxCell>
        <mxCell id="--shUhOUACFNP3oiHyCO-31" value="&lt;font style=&quot;font-size: 14px;&quot;&gt;Response&lt;/font&gt;" style="edgeLabel;html=1;align=center;verticalAlign=middle;resizable=0;points=[];fontSize=20;fontFamily=Architects Daughter;" parent="--shUhOUACFNP3oiHyCO-30" vertex="1" connectable="0">
          <mxGeometry x="-0.2161" y="-1" relative="1" as="geometry">
            <mxPoint x="13" y="28" as="offset" />
          </mxGeometry>
        </mxCell>
        <mxCell id="--shUhOUACFNP3oiHyCO-32" value="&lt;font style=&quot;font-size: 16px;&quot;&gt;HTTP Response&lt;/font&gt;" style="ellipse;whiteSpace=wrap;html=1;sketch=1;hachureGap=4;jiggle=2;curveFitting=1;fontFamily=Architects Daughter;fontSource=https%3A%2F%2Ffonts.googleapis.com%2Fcss%3Ffamily%3DArchitects%2BDaughter;fontSize=20;" parent="WIyWlLk6GJQsqaUBKTNV-1" vertex="1">
          <mxGeometry x="31" y="230.5" width="93" height="53.5" as="geometry" />
        </mxCell>
        <mxCell id="--shUhOUACFNP3oiHyCO-33" value="" style="endArrow=classic;html=1;rounded=0;sketch=1;hachureGap=4;jiggle=2;curveFitting=1;fontFamily=Architects Daughter;fontSource=https%3A%2F%2Ffonts.googleapis.com%2Fcss%3Ffamily%3DArchitects%2BDaughter;fontSize=16;exitX=0;exitY=0.5;exitDx=0;exitDy=0;entryX=1;entryY=0.5;entryDx=0;entryDy=0;" parent="WIyWlLk6GJQsqaUBKTNV-1" source="--shUhOUACFNP3oiHyCO-2" target="--shUhOUACFNP3oiHyCO-32" edge="1">
          <mxGeometry width="50" height="50" relative="1" as="geometry">
            <mxPoint x="230" y="262" as="sourcePoint" />
            <mxPoint x="133" y="262" as="targetPoint" />
          </mxGeometry>
        </mxCell>
        <mxCell id="--shUhOUACFNP3oiHyCO-34" value="&lt;font style=&quot;font-size: 14px;&quot;&gt;Response&lt;/font&gt;" style="edgeLabel;html=1;align=center;verticalAlign=middle;resizable=0;points=[];fontSize=20;fontFamily=Architects Daughter;" parent="--shUhOUACFNP3oiHyCO-33" vertex="1" connectable="0">
          <mxGeometry x="-0.2161" y="-1" relative="1" as="geometry">
            <mxPoint x="-14" y="-14" as="offset" />
          </mxGeometry>
        </mxCell>
      </root>
    </mxGraphModel>
  </diagram>
</mxfile>
